<?xml version="1.0" encoding="iso-8859-1"?>
<!-- Generator: Adobe Illustrator 19.0.0, SVG Export Plug-In . SVG Version: 6.00 Build 0)  -->
<svg version="1.1" id="Capa_1" xmlns="http://www.w3.org/2000/svg" xmlns:xlink="http://www.w3.org/1999/xlink" x="0px" y="0px"
	 viewBox="0 0 512 512" style="enable-background:new 0 0 512 512;" xml:space="preserve">
<g>
	<g>
		<rect y="61" width="60" height="60"/>
	</g>
</g>
<g>
	<g>
		<rect y="226" width="60" height="60"/>
	</g>
</g>
<g>
	<g>
		<rect y="391" width="60" height="61"/>
	</g>
</g>
<g>
	<g>
		<path d="M30,0v31h60v120H30v45h60v120H30v45h60v121H30v30h422V0H30z M331,211h-45c-8.276,0-15,6.724-15,15v60
			c0,8.276,6.724,15,15,15h45v120h-45c-57.891,0-105-47.109-105-105V196c0-57.891,47.109-105,105-105h45V211z"/>
	</g>
</g>
<g>
	<g>
		<path d="M286,181h15v-60h-15c-41.353,0-75,33.647-75,75v120c0,41.353,33.647,75,75,75h15v-60h-15c-24.814,0-45-20.186-45-45v-60
			C241,201.186,261.186,181,286,181z"/>
	</g>
</g>
<g>
	<g>
		<rect x="482" y="181" width="30" height="60"/>
	</g>
</g>
<g>
	<g>
		<rect x="482" y="61" width="30" height="90"/>
	</g>
</g>
<g>
	<g>
		<rect x="482" y="361" width="30" height="91"/>
	</g>
</g>
<g>
	<g>
		<rect x="482" y="271" width="30" height="60"/>
	</g>
</g>
<g>
</g>
<g>
</g>
<g>
</g>
<g>
</g>
<g>
</g>
<g>
</g>
<g>
</g>
<g>
</g>
<g>
</g>
<g>
</g>
<g>
</g>
<g>
</g>
<g>
</g>
<g>
</g>
<g>
</g>
</svg>
